HIERARCHY
ROOT Hips
{
	OFFSET 0.000000 0.000000 0.000000
	CHANNELS 6 Xposition Yposition Zposition Xrotation Yrotation Zrotation
	JOINT LeftUpLeg_virtual
	{
		OFFSET 0.000000 0.000000 0.000000
		CHANNELS 3 Xrotation Yrotation Zrotation
		JOINT LeftUpLeg
		{
			OFFSET 15.427100 -6.655098 0.678600
			CHANNELS 3 Xrotation Yrotation Zrotation
			JOINT LeftLeg
			{
				OFFSET 4.081073 -39.591068 13.024000
				CHANNELS 3 Xrotation Yrotation Zrotation
				JOINT LeftFoot
				{
					OFFSET -4.081074 -37.707932 -15.979700
					CHANNELS 3 Xrotation Yrotation Zrotation
					JOINT LeftToeBase
					{
						OFFSET 5.346399 -15.068900 20.645000
						CHANNELS 3 Xrotation Yrotation Zrotation
						JOINT LeftToe_End
						{
							OFFSET 2.754700 0.931300 11.300900
							CHANNELS 3 Xrotation Yrotation Zrotation
							End Site
							{
								OFFSET 0 0 0
							}
						}
					}
				}
			}
		}
	}
	JOINT RightUpLeg_virtual
	{
		OFFSET 0.000000 0.000000 0.000000
		CHANNELS 3 Xrotation Yrotation Zrotation
		JOINT RightUpLeg
		{
			OFFSET -15.569500 -6.655098 0.678600
			CHANNELS 3 Xrotation Yrotation Zrotation
			JOINT RightLeg
			{
				OFFSET -4.081825 -39.591045 13.023800
				CHANNELS 3 Xrotation Yrotation Zrotation
				JOINT RightFoot
				{
					OFFSET 4.081824 -37.707954 -15.979600
					CHANNELS 3 Xrotation Yrotation Zrotation
					JOINT RightToeBase
					{
						OFFSET -5.346400 -15.068900 20.645000
						CHANNELS 3 Xrotation Yrotation Zrotation
						JOINT RightToe_End
						{
							OFFSET -2.754700 0.931300 11.300900
							CHANNELS 3 Xrotation Yrotation Zrotation
							End Site
							{
								OFFSET 0 0 0
							}
						}
					}
				}
			}
		}
	}
	JOINT Spine_virtual
	{
		OFFSET 0.000000 0.000000 0.000000
		CHANNELS 3 Xrotation Yrotation Zrotation
		JOINT Spine
		{
			OFFSET -0.279200 12.230698 -2.892100
			CHANNELS 3 Xrotation Yrotation Zrotation
			JOINT Spine1
			{
				OFFSET -0.232667 10.192268 -1.242267
				CHANNELS 3 Xrotation Yrotation Zrotation
				JOINT Spine1_split
				{
					OFFSET -0.232667 10.192268 -1.242267
					CHANNELS 3 Xrotation Yrotation Zrotation
					JOINT Spine2
					{
						OFFSET -0.232667 10.192268 -1.242267
						CHANNELS 3 Xrotation Yrotation Zrotation
						JOINT Neck_virtual
						{
							OFFSET 0.000000 0.000000 0.000000
							CHANNELS 3 Xrotation Yrotation Zrotation
							JOINT Neck
							{
								OFFSET -0.418800 17.814194 8.416900
								CHANNELS 3 Xrotation Yrotation Zrotation
								JOINT Head
								{
									OFFSET 0.000000 7.031097 3.806800
									CHANNELS 3 Xrotation Yrotation Zrotation
									JOINT HeadTop_End
									{
										OFFSET 0.000000 24.646606 12.978600
										CHANNELS 3 Xrotation Yrotation Zrotation
										End Site
										{
											OFFSET 0 0 0
										}
									}
								}
							}
						}
						JOINT LeftShoulder_virtual
						{
							OFFSET 0.000000 0.000000 0.000000
							CHANNELS 3 Xrotation Yrotation Zrotation
							JOINT LeftShoulder
							{
								OFFSET 8.476499 7.247704 -3.868750
								CHANNELS 3 Xrotation Yrotation Zrotation
								JOINT LeftShoulder_split
								{
									OFFSET 8.476499 7.247704 -3.868750
									CHANNELS 3 Xrotation Yrotation Zrotation
									JOINT LeftArm
									{
										OFFSET 9.308998 -2.777710 0.208600
										CHANNELS 3 Xrotation Yrotation Zrotation
										JOINT LeftForeArm
										{
											OFFSET 29.972298 0.000000 0.000000
											CHANNELS 3 Xrotation Yrotation Zrotation
											JOINT LeftHand
											{
												OFFSET 26.026505 0.000000 0.000000
												CHANNELS 3 Xrotation Yrotation Zrotation
												End Site
												{
													OFFSET 0 0 0
												}
											}
										}
									}
								}
							}
						}
						JOINT RightShoulder_virtual
						{
							OFFSET 0.000000 0.000000 0.000000
							CHANNELS 3 Xrotation Yrotation Zrotation
							JOINT RightShoulder
							{
								OFFSET -7.570500 7.247704 -3.868750
								CHANNELS 3 Xrotation Yrotation Zrotation
								JOINT RightShoulder_split
								{
									OFFSET -7.570500 7.247704 -3.868750
									CHANNELS 3 Xrotation Yrotation Zrotation
									JOINT RightArm
									{
										OFFSET -9.308998 -2.777710 0.208500
										CHANNELS 3 Xrotation Yrotation Zrotation
										JOINT RightForeArm
										{
											OFFSET -29.972300 0.000000 0.000000
											CHANNELS 3 Xrotation Yrotation Zrotation
											JOINT RightHand
											{
												OFFSET -26.026505 0.000000 0.000000
												CHANNELS 3 Xrotation Yrotation Zrotation
												End Site
												{
													OFFSET 0 0 0
												}
											}
										}
									}
								}
							}
						}
					}
				}
			}
		}
	}
}
MOTION
Frames: 7
Frame Time: 0.03333333
1.138794 84.193161 -3.526123 0.000000 0.000000 0.000000 3.400704 -10.325073 -1.265426 -42.418630 2.737273 10.493535 34.121006 1.857305 3.223203 3.605171 -1.068144 -5.978808 1.662855 -1.027685 -1.485847 0.000000 0.000000 0.000000 3.044688 -10.626459 -1.181352 -5.313366 -12.677395 -14.396943 27.280281 -6.535673 2.491941 -21.393771 -7.325274 16.578819 0.539357 0.857082 1.456202 0.000000 0.000000 0.000000 3.822368 -9.653244 -1.572690 21.630285 4.909662 1.852985 1.778561 2.023279 -0.461031 0.466268 -0.164272 0.217735 0.000000 0.000000 0.000000 2.463218 2.058483 -0.169037 -5.479786 16.329367 1.452536 7.956837 48.286596 -21.561650 0.000000 0.000000 0.000000 2.704889 2.351305 -0.404451 2.139991 -34.974711 5.723372 0.324291 0.523281 -4.533099 -25.085500 -15.860932 -66.801463 -0.288243 -45.718110 -7.799930 0.000000 0.000000 0.000000 3.214227 2.096881 -0.383146 8.540975 21.159550 -10.306560 -1.103812 3.502210 0.446038 -42.695273 14.722983 82.139165 -0.662072 53.240638 2.863177 0.000000 0.000000 0.000000 
1.205258 84.159050 -3.135555 0.000000 0.000000 0.000000 3.491323 -9.576758 -1.305177 -42.767759 2.869285 10.120121 34.397451 1.606269 3.299214 3.409679 -1.128958 -5.677433 1.670721 -1.044842 -1.475999 0.000000 0.000000 0.000000 3.114891 -9.976188 -1.217441 -4.463795 -12.664879 -14.384414 26.566610 -7.103994 2.509028 -21.267792 -7.464922 17.120948 0.554302 0.823840 1.504162 0.000000 0.000000 0.000000 3.959328 -8.936311 -1.609099 21.436439 4.950260 1.409538 1.723820 2.124224 -0.644437 0.467465 -0.142323 0.186682 0.000000 0.000000 0.000000 2.429762 2.153548 -0.381064 -5.530620 16.191083 1.769887 7.013433 47.937420 -20.631251 0.000000 0.000000 0.000000 2.706217 2.435825 -0.660038 1.998387 -35.514965 5.684971 0.074574 0.475730 -4.837808 -24.672235 -15.806057 -66.623625 -0.232384 -45.523194 -6.696387 0.000000 0.000000 0.000000 3.222286 2.236393 -0.617045 8.384491 20.296059 -10.035413 -0.849226 3.652236 0.412082 -43.003885 15.281539 83.079730 -0.678007 52.674549 2.452257 0.000000 0.000000 0.000000 
1.261823 84.126823 -2.751427 0.000000 0.000000 0.000000 3.595894 -8.934161 -1.290041 -43.057345 2.971933 9.757262 34.682154 1.420399 3.356766 3.181249 -1.170736 -5.427519 1.681636 -1.059408 -1.474229 0.000000 0.000000 0.000000 3.194805 -9.443038 -1.195431 -3.764615 -12.603625 -14.426473 26.000549 -7.600807 2.500828 -21.167359 -7.595430 17.642201 0.548216 0.794866 1.537901 0.000000 0.000000 0.000000 4.112286 -8.331079 -1.580200 21.243997 4.935829 0.931008 1.678982 2.205118 -0.821602 0.478661 -0.114222 0.174120 0.000000 0.000000 0.000000 2.407081 2.230937 -0.590949 -5.629739 15.946166 2.120917 5.800831 47.403774 -19.400341 0.000000 0.000000 0.000000 2.708904 2.502712 -0.908055 1.857469 -36.021868 5.656414 -0.131466 0.463340 -5.075635 -24.057600 -15.910092 -66.400777 -0.211877 -45.491573 -5.630701 0.000000 0.000000 0.000000 3.227883 2.355595 -0.838596 8.272976 19.684467 -9.834800 -0.679975 3.754403 0.430750 -43.219077 15.632561 83.881089 -0.768784 52.284640 2.188622 0.000000 0.000000 0.000000 
1.309848 84.094376 -2.388569 0.000000 0.000000 0.000000 3.721176 -8.394530 -1.228972 -43.306401 3.019470 9.402561 34.993334 1.294878 3.407982 2.938749 -1.194062 -5.238688 1.709146 -1.070396 -1.484443 0.000000 0.000000 0.000000 3.293533 -9.006402 -1.126764 -3.195357 -12.503085 -14.503975 25.540958 -8.031976 2.466057 -21.118535 -7.721597 18.121983 0.535398 0.773045 1.555607 0.000000 0.000000 0.000000 4.281484 -7.834901 -1.508524 21.059423 4.859127 0.425644 1.640912 2.262688 -0.988663 0.462342 -0.061627 0.175859 0.000000 0.000000 0.000000 2.384316 2.287665 -0.796387 -5.787685 15.621225 2.521908 4.434626 46.764406 -17.915643 0.000000 0.000000 0.000000 2.712590 2.549942 -1.139566 1.734843 -36.521151 5.678010 -0.289942 0.490600 -5.246157 -23.271703 -16.156030 -66.155942 -0.224159 -45.601621 -4.618026 0.000000 0.000000 0.000000 3.232049 2.450949 -1.040419 8.198422 19.317809 -9.697408 -0.574417 3.814238 0.458269 -43.302812 15.767727 84.510819 -0.896312 52.007280 2.034527 0.000000 0.000000 0.000000 
1.358159 84.065369 -2.039757 0.000000 0.000000 0.000000 3.875877 -7.954481 -1.136404 -43.528953 2.995319 9.057020 35.337845 1.226123 3.465084 2.679876 -1.193217 -5.114120 1.765859 -1.077920 -1.507807 0.000000 0.000000 0.000000 3.421018 -8.647031 -1.026323 -2.734835 -12.374243 -14.594717 25.148144 -8.412338 2.405233 -21.118178 -7.848823 18.536459 0.547225 0.761388 1.559062 0.000000 0.000000 0.000000 4.464173 -7.454958 -1.411444 20.893868 4.722967 -0.091002 1.610564 2.293408 -1.142372 0.440632 0.013258 0.183332 0.000000 0.000000 0.000000 2.358168 2.322992 -0.993474 -6.008731 15.245950 2.996903 3.022778 46.099740 -16.251820 0.000000 0.000000 0.000000 2.717642 2.572111 -1.349581 1.637873 -37.038244 5.760884 -0.412491 0.614491 -5.366096 -22.374969 -16.511484 -65.925245 -0.267413 -45.793598 -3.661167 0.000000 0.000000 0.000000 3.235302 2.520095 -1.223266 8.155368 19.169061 -9.624221 -0.523599 3.845440 0.468371 -43.263723 15.686066 84.948333 -1.034593 51.827240 1.954346 0.000000 0.000000 0.000000 
1.407454 84.039902 -1.720661 0.000000 0.000000 0.000000 4.054501 -7.601331 -1.029355 -43.725430 2.908707 8.729948 35.690850 1.207149 3.532708 2.400466 -1.172837 -5.059255 1.840721 -1.081634 -1.535829 0.000000 0.000000 0.000000 3.576411 -8.355396 -0.911164 -2.377486 -12.235072 -14.686100 24.794203 -8.751476 2.326568 -21.142183 -7.976700 18.880268 0.593848 0.760332 1.550076 0.000000 0.000000 0.000000 4.649682 -7.185733 -1.301510 20.758932 4.536660 -0.600532 1.580080 2.295980 -1.282880 0.441135 0.097457 0.181262 0.000000 0.000000 0.000000 2.327012 2.335631 -1.180692 -6.290933 14.849063 3.540237 1.654905 45.475273 -14.506186 0.000000 0.000000 0.000000 2.723012 2.569000 -1.538808 1.568456 -37.594280 5.888772 -0.566916 0.813360 -5.453276 -21.390559 -16.944408 -65.714432 -0.341246 -46.008810 -2.758640 0.000000 0.000000 0.000000 3.239323 2.559094 -1.388467 8.136930 19.197823 -9.613265 -0.504505 3.923916 0.414432 -43.128485 15.448768 85.232483 -1.161075 51.756769 1.919678 0.000000 0.000000 0.000000 
1.455538 84.021034 -1.428406 0.000000 0.000000 0.000000 4.250232 -7.331861 -0.917992 -43.897831 2.781963 8.435851 36.023336 1.222499 3.607909 2.119359 -1.145428 -5.086067 1.904652 -1.081827 -1.556204 0.000000 0.000000 0.000000 3.751482 -8.121845 -0.792746 -2.127050 -12.107347 -14.775178 24.462471 -9.048228 2.238962 -21.149735 -8.097575 19.174545 0.651637 0.768693 1.529534 0.000000 0.000000 0.000000 4.837494 -7.025819 -1.185367 20.662277 4.317382 -1.084666 1.545046 2.273987 -1.410722 0.424323 0.174408 0.160465 0.000000 0.000000 0.000000 2.298139 2.329560 -1.356710 -6.625459 14.466105 4.134233 0.374176 44.946087 -12.790206 0.000000 0.000000 0.000000 2.731990 2.542792 -1.705909 1.522822 -38.197297 6.039836 -0.768053 1.075697 -5.531840 -20.374804 -17.388082 -65.549182 -0.466831 -46.184544 -1.917447 0.000000 0.000000 0.000000 3.244399 2.570250 -1.537580 8.140130 19.360849 -9.661296 -0.483036 4.072835 0.324183 -42.928647 15.119054 85.413565 -1.254709 51.781122 1.909425 0.000000 0.000000 0.000000 
